# xmcd
#
# Track frame offsets: 
#        150
#        17819
#        35584
#        49171
#        63117
#        75854
#        87066
#        112521
#        127412
#        148193
#        178830
#        197075
#        215353
#        232819
#        248787
#        267602
#
# Disc length: 3731 seconds
#
# Revision: 0
# Processed by: cddbd v1.5.2PL0 Copyright (c) Steve Scherf et al.
# Submitted via: ExactAudioCopy v0.99pb5
#
DISCID=d90e9110
DTITLE=Mike Morgan And The Crawl - Mighty Fine Dancin'
DYEAR=1991
DGENRE=Blues
TTITLE0=Losing Ground
TTITLE1=You Ain't Like You Used to Be
TTITLE2=Just The Kind Of Man I Am
TTITLE3=Frankie's Blues
TTITLE4=Don't Stay Out All Night Long
TTITLE5="Big D" Shuffle
TTITLE6=Kiss Me Baby
TTITLE7=Movin' It On
TTITLE8=Cause I Love You
TTITLE9=Blues For Al And Peggy
TTITLE10=I Don't Want You Hanging Around
TTITLE11=Swingin' Mama
TTITLE12=Every Little Kiss
TTITLE13=Sweet Lolita
TTITLE14=Why You Stay Out So Late?
TTITLE15=Honey I Need Your Lovin'
EXTD=
EXTT0=
EXTT1=
EXTT2=
EXTT3=
EXTT4=
EXTT5=
EXTT6=
EXTT7=
EXTT8=
EXTT9=
EXTT10=
EXTT11=
EXTT12=
EXTT13=
EXTT14=
EXTT15=
PLAYORDER=
